<svg viewBox="0 0 70 70" fill="none" xmlns="http://www.w3.org/2000/svg">
<path d="M21 24.5H49V45.5H21V24.5Z" fill="#F3A941"/>
<path d="M56 10.5H14C12.0671 10.5 10.5 12.0671 10.5 14V56C10.5 57.9329 12.0671 59.5 14 59.5H56C57.9329 59.5 59.5 57.9329 59.5 56V14C59.5 12.0671 57.9329 10.5 56 10.5ZM57.1667 56C57.1667 56.6443 56.6443 57.1667 56 57.1667H14C13.3557 57.1667 12.8333 56.6443 12.8333 56V14C12.8333 13.3557 13.3557 12.8333 14 12.8333H56C56.6443 12.8333 57.1667 13.3557 57.1667 14V56Z" fill="#F5B85E"/>
<path d="M48.9999 23.3333H20.9999C20.3556 23.3333 19.8333 23.8557 19.8333 24.5V45.5C19.8333 46.1443 20.3556 46.6666 20.9999 46.6666H48.9999C49.6442 46.6666 50.1666 46.1443 50.1666 45.5V24.5C50.1666 23.8557 49.6442 23.3333 48.9999 23.3333ZM47.8332 44.3333H22.1666V25.6666H47.8332V44.3333Z" fill="#F5B85E"/>
<path d="M26.8333 42H30.3333V35C30.3333 34.3557 29.8109 33.8333 29.1666 33.8333H26.8333V36.1667H27.9999V39.6667H26.8333C26.189 39.6667 25.6666 39.1443 25.6666 38.5V31.5C25.6666 30.8557 26.189 30.3333 26.8333 30.3333H30.3333V28H26.8333C24.9004 28 23.3333 29.5671 23.3333 31.5V38.5C23.3333 40.4329 24.9004 42 26.8333 42Z" fill="#222E3D"/>
<path d="M43.1667 42C45.0996 42 46.6667 40.4329 46.6667 38.5V28H44.3334V38.5C44.3334 39.1443 43.811 39.6667 43.1667 39.6667C42.5225 39.6667 42.0001 39.1443 42.0001 38.5V28H39.6667V38.5C39.6667 40.4329 41.2339 42 43.1667 42Z" fill="#222E3D"/>
<path d="M33.8333 36.1667H37.3333C37.9776 36.1667 38.5 35.6443 38.5 35V29.1667C38.5 28.5224 37.9776 28 37.3333 28H32.6667C32.0224 28 31.5 28.5224 31.5 29.1667V42H33.8333V36.1667ZM33.8333 30.3333H36.1667V33.8333H33.8333V30.3333Z" fill="#222E3D"/>
<path d="M15.1667 0H17.5001V7H15.1667V0Z" fill="#F5B85E"/>
<path d="M24.5 0H26.8333V7H24.5V0Z" fill="#F5B85E"/>
<path d="M33.8333 0H36.1666V7H33.8333V0Z" fill="#F5B85E"/>
<path d="M43.1667 0H45.5001V7H43.1667V0Z" fill="#F5B85E"/>
<path d="M52.5 0H54.8333V7H52.5V0Z" fill="#F5B85E"/>
<path d="M15.1667 63H17.5001V70H15.1667V63Z" fill="#F5B85E"/>
<path d="M24.5 63H26.8333V70H24.5V63Z" fill="#F5B85E"/>
<path d="M33.8333 63H36.1666V70H33.8333V63Z" fill="#F5B85E"/>
<path d="M43.1667 63H45.5001V70H43.1667V63Z" fill="#F5B85E"/>
<path d="M52.5 63H54.8333V70H52.5V63Z" fill="#F5B85E"/>
<path d="M63 15.1667H70V17.5H63V15.1667Z" fill="#F5B85E"/>
<path d="M63 24.5H70V26.8333H63V24.5Z" fill="#F5B85E"/>
<path d="M63 33.8333H70V36.1666H63V33.8333Z" fill="#F5B85E"/>
<path d="M63 43.1667H70V45.5H63V43.1667Z" fill="#F5B85E"/>
<path d="M63 52.5H70V54.8333H63V52.5Z" fill="#F5B85E"/>
<path d="M0 15.1667H7V17.5H0V15.1667Z" fill="#F5B85E"/>
<path d="M0 24.5H7V26.8333H0V24.5Z" fill="#F5B85E"/>
<path d="M0 33.8333H7V36.1666H0V33.8333Z" fill="#F5B85E"/>
<path d="M0 43.1667H7V45.5H0V43.1667Z" fill="#F5B85E"/>
<path d="M0 52.5H7V54.8333H0V52.5Z" fill="#F5B85E"/>
</svg>
