<svg xmlns="http://www.w3.org/2000/svg" height="272.90301pt" version="1.1" viewBox="1 1 272.90301 272.90301" width="272.90301pt">
<g id="surface1">
<path d="M 227.5 218.402344 L 227.5 54.601562 C 227.5 49.574219 223.425781 45.5 218.398438 45.5 L 54.601562 45.5 C 49.574219 45.5 45.5 49.574219 45.5 54.601562 L 45.5 218.402344 C 45.5 223.425781 49.574219 227.5 54.601562 227.5 L 218.402344 227.5 C 223.425781 227.5 227.5 223.425781 227.5 218.402344 Z M 191.101562 177.449219 L 81.898438 177.449219 L 81.898438 95.550781 L 191.101562 95.550781 Z M 191.101562 177.449219 " style=" stroke:none;fill-rule:nonzero;fill:rgb(80.392157%,80.392157%,81.568627%);fill-opacity:1;" />
<path d="M 81.898438 177.449219 L 191.101562 177.449219 L 191.101562 95.550781 L 81.898438 95.550781 Z M 159.25 109.199219 L 159.25 150.148438 C 159.25 155.175781 163.324219 159.25 168.351562 159.25 C 173.375 159.25 177.449219 155.175781 177.449219 150.148438 C 177.449219 155.175781 173.375 159.25 168.351562 159.25 C 163.324219 159.25 159.25 155.175781 159.25 150.148438 Z M 127.398438 136.5 L 127.398438 113.75 L 145.601562 113.75 L 145.601562 136.5 Z M 95.550781 122.851562 C 95.550781 117.824219 99.625 113.75 104.648438 113.75 C 99.625 113.75 95.550781 117.824219 95.550781 122.851562 L 95.550781 150.148438 C 95.550781 155.175781 99.625 159.25 104.648438 159.25 L 113.75 159.25 L 113.75 136.5 L 113.75 159.25 L 104.648438 159.25 C 99.625 159.25 95.550781 155.175781 95.550781 150.148438 Z M 95.550781 122.851562 " style=" stroke:none;fill-rule:nonzero;fill:rgb(40%,90.588235%,92.54902%);fill-opacity:1;" />
<path d="M 127.398438 113.75 L 145.601562 113.75 L 145.601562 136.5 L 127.398438 136.5 Z M 127.398438 113.75 " style=" stroke:none;fill-rule:nonzero;fill:rgb(40%,90.588235%,92.54902%);fill-opacity:1;" />
<path d="M 218.402344 40.949219 L 54.601562 40.949219 C 47.0625 40.949219 40.949219 47.0625 40.949219 54.597656 L 40.949219 218.398438 C 40.949219 225.9375 47.0625 232.050781 54.601562 232.050781 L 218.402344 232.050781 C 225.9375 232.050781 232.050781 225.9375 232.050781 218.398438 L 232.050781 54.601562 C 232.050781 47.0625 225.9375 40.949219 218.402344 40.949219 Z M 222.949219 218.402344 C 222.949219 220.914062 220.914062 222.949219 218.402344 222.949219 L 54.601562 222.949219 C 52.085938 222.949219 50.050781 220.914062 50.050781 218.402344 L 50.050781 54.601562 C 50.050781 52.085938 52.085938 50.050781 54.601562 50.050781 L 218.402344 50.050781 C 220.914062 50.050781 222.949219 52.085938 222.949219 54.601562 Z M 222.949219 218.402344 " style=" stroke:none;fill-rule:nonzero;fill:rgb(13.72549%,12.156863%,12.54902%);fill-opacity:1;" />
<path d="M 191.101562 91 L 81.898438 91 C 79.386719 91 77.351562 93.035156 77.351562 95.550781 L 77.351562 177.449219 C 77.351562 179.964844 79.386719 182 81.898438 182 L 191.101562 182 C 193.613281 182 195.648438 179.964844 195.648438 177.449219 L 195.648438 95.550781 C 195.652344 93.035156 193.613281 91 191.101562 91 Z M 186.550781 172.902344 L 86.449219 172.902344 L 86.449219 100.101562 L 186.550781 100.101562 Z M 186.550781 172.902344 " style=" stroke:none;fill-rule:nonzero;fill:rgb(13.72549%,12.156863%,12.54902%);fill-opacity:1;" />
<path d="M 104.648438 163.800781 L 118.300781 163.800781 L 118.300781 136.5 C 118.300781 133.988281 116.261719 131.949219 113.75 131.949219 L 104.648438 131.949219 L 104.648438 141.050781 L 109.199219 141.050781 L 109.199219 154.699219 L 104.648438 154.699219 C 102.136719 154.699219 100.101562 152.664062 100.101562 150.148438 L 100.101562 122.851562 C 100.101562 120.335938 102.136719 118.300781 104.648438 118.300781 L 118.300781 118.300781 L 118.300781 109.199219 L 104.648438 109.199219 C 97.113281 109.199219 91 115.3125 91 122.851562 L 91 150.148438 C 91 157.6875 97.113281 163.800781 104.648438 163.800781 Z M 104.648438 163.800781 " style=" stroke:none;fill-rule:nonzero;fill:rgb(13.72549%,12.156863%,12.54902%);fill-opacity:1;" />
<path d="M 168.351562 163.800781 C 175.886719 163.800781 182 157.6875 182 150.148438 L 182 109.199219 L 172.898438 109.199219 L 172.898438 150.148438 C 172.898438 152.664062 170.863281 154.699219 168.351562 154.699219 C 165.835938 154.699219 163.800781 152.664062 163.800781 150.148438 L 163.800781 109.199219 L 154.699219 109.199219 L 154.699219 150.148438 C 154.699219 157.6875 160.8125 163.800781 168.351562 163.800781 Z M 168.351562 163.800781 " style=" stroke:none;fill-rule:nonzero;fill:rgb(13.72549%,12.156863%,12.54902%);fill-opacity:1;" />
<path d="M 131.949219 141.050781 L 145.601562 141.050781 C 148.113281 141.050781 150.148438 139.011719 150.148438 136.5 L 150.148438 113.75 C 150.148438 111.238281 148.113281 109.199219 145.601562 109.199219 L 127.398438 109.199219 C 124.886719 109.199219 122.851562 111.238281 122.851562 113.75 L 122.851562 163.800781 L 131.949219 163.800781 Z M 131.949219 118.300781 L 141.050781 118.300781 L 141.050781 131.949219 L 131.949219 131.949219 Z M 131.949219 118.300781 " style=" stroke:none;fill-rule:nonzero;fill:rgb(13.72549%,12.156863%,12.54902%);fill-opacity:1;" />
<path d="M 59.148438 0 L 68.25 0 L 68.25 27.300781 L 59.148438 27.300781 Z M 59.148438 0 " style=" stroke:none;fill-rule:nonzero;fill:rgb(13.72549%,12.156863%,12.54902%);fill-opacity:1;" />
<path d="M 95.550781 0 L 104.648438 0 L 104.648438 27.300781 L 95.550781 27.300781 Z M 95.550781 0 " style=" stroke:none;fill-rule:nonzero;fill:rgb(13.72549%,12.156863%,12.54902%);fill-opacity:1;" />
<path d="M 131.949219 0 L 141.050781 0 L 141.050781 27.300781 L 131.949219 27.300781 Z M 131.949219 0 " style=" stroke:none;fill-rule:nonzero;fill:rgb(13.72549%,12.156863%,12.54902%);fill-opacity:1;" />
<path d="M 168.351562 0 L 177.449219 0 L 177.449219 27.300781 L 168.351562 27.300781 Z M 168.351562 0 " style=" stroke:none;fill-rule:nonzero;fill:rgb(13.72549%,12.156863%,12.54902%);fill-opacity:1;" />
<path d="M 204.75 0 L 213.851562 0 L 213.851562 27.300781 L 204.75 27.300781 Z M 204.75 0 " style=" stroke:none;fill-rule:nonzero;fill:rgb(13.72549%,12.156863%,12.54902%);fill-opacity:1;" />
<path d="M 59.148438 245.699219 L 68.25 245.699219 L 68.25 273 L 59.148438 273 Z M 59.148438 245.699219 " style=" stroke:none;fill-rule:nonzero;fill:rgb(13.72549%,12.156863%,12.54902%);fill-opacity:1;" />
<path d="M 95.550781 245.699219 L 104.648438 245.699219 L 104.648438 273 L 95.550781 273 Z M 95.550781 245.699219 " style=" stroke:none;fill-rule:nonzero;fill:rgb(13.72549%,12.156863%,12.54902%);fill-opacity:1;" />
<path d="M 131.949219 245.699219 L 141.050781 245.699219 L 141.050781 273 L 131.949219 273 Z M 131.949219 245.699219 " style=" stroke:none;fill-rule:nonzero;fill:rgb(13.72549%,12.156863%,12.54902%);fill-opacity:1;" />
<path d="M 168.351562 245.699219 L 177.449219 245.699219 L 177.449219 273 L 168.351562 273 Z M 168.351562 245.699219 " style=" stroke:none;fill-rule:nonzero;fill:rgb(13.72549%,12.156863%,12.54902%);fill-opacity:1;" />
<path d="M 204.75 245.699219 L 213.851562 245.699219 L 213.851562 273 L 204.75 273 Z M 204.75 245.699219 " style=" stroke:none;fill-rule:nonzero;fill:rgb(13.72549%,12.156863%,12.54902%);fill-opacity:1;" />
<path d="M 245.699219 59.148438 L 273 59.148438 L 273 68.25 L 245.699219 68.25 Z M 245.699219 59.148438 " style=" stroke:none;fill-rule:nonzero;fill:rgb(13.72549%,12.156863%,12.54902%);fill-opacity:1;" />
<path d="M 245.699219 95.550781 L 273 95.550781 L 273 104.648438 L 245.699219 104.648438 Z M 245.699219 95.550781 " style=" stroke:none;fill-rule:nonzero;fill:rgb(13.72549%,12.156863%,12.54902%);fill-opacity:1;" />
<path d="M 245.699219 131.949219 L 273 131.949219 L 273 141.050781 L 245.699219 141.050781 Z M 245.699219 131.949219 " style=" stroke:none;fill-rule:nonzero;fill:rgb(13.72549%,12.156863%,12.54902%);fill-opacity:1;" />
<path d="M 245.699219 168.351562 L 273 168.351562 L 273 177.449219 L 245.699219 177.449219 Z M 245.699219 168.351562 " style=" stroke:none;fill-rule:nonzero;fill:rgb(13.72549%,12.156863%,12.54902%);fill-opacity:1;" />
<path d="M 245.699219 204.75 L 273 204.75 L 273 213.851562 L 245.699219 213.851562 Z M 245.699219 204.75 " style=" stroke:none;fill-rule:nonzero;fill:rgb(13.72549%,12.156863%,12.54902%);fill-opacity:1;" />
<path d="M 0 59.148438 L 27.300781 59.148438 L 27.300781 68.25 L 0 68.25 Z M 0 59.148438 " style=" stroke:none;fill-rule:nonzero;fill:rgb(13.72549%,12.156863%,12.54902%);fill-opacity:1;" />
<path d="M 0 95.550781 L 27.300781 95.550781 L 27.300781 104.648438 L 0 104.648438 Z M 0 95.550781 " style=" stroke:none;fill-rule:nonzero;fill:rgb(13.72549%,12.156863%,12.54902%);fill-opacity:1;" />
<path d="M 0 131.949219 L 27.300781 131.949219 L 27.300781 141.050781 L 0 141.050781 Z M 0 131.949219 " style=" stroke:none;fill-rule:nonzero;fill:rgb(13.72549%,12.156863%,12.54902%);fill-opacity:1;" />
<path d="M 0 168.351562 L 27.300781 168.351562 L 27.300781 177.449219 L 0 177.449219 Z M 0 168.351562 " style=" stroke:none;fill-rule:nonzero;fill:rgb(13.72549%,12.156863%,12.54902%);fill-opacity:1;" />
<path d="M 0 204.75 L 27.300781 204.75 L 27.300781 213.851562 L 0 213.851562 Z M 0 204.75 " style=" stroke:none;fill-rule:nonzero;fill:rgb(13.72549%,12.156863%,12.54902%);fill-opacity:1;" />
</g>
</svg>
