<svg viewBox="0 0 512 512" fill="none" xmlns="http://www.w3.org/2000/svg">
<path d="M469.333 304.228V85.333C469.333 61.802 450.198 42.666 426.666 42.666H373.333C367.437 42.666 362.666 47.437 362.666 53.333V106.666C362.666 118.426 353.093 127.999 341.333 127.999C329.573 127.999 320 118.426 320 106.666C320 97.749 325.729 89.718 334.25 86.687C338.5 85.166 341.333 81.145 341.333 76.635V10.667C341.333 4.771 336.563 0 330.667 0C324.771 0 320 4.771 320 10.667V42.667H160C154.104 42.667 149.333 47.438 149.333 53.334V106.667C149.333 118.427 139.76 128 128 128C116.24 128 106.667 118.427 106.667 106.667C106.667 97.75 112.396 89.719 120.917 86.688C125.167 85.167 128 81.146 128 76.636V10.667C128 4.771 123.229 0 117.333 0C111.437 0 106.666 4.771 106.666 10.667V42.667H42.666C19.135 42.667 0 61.802 0 85.333V426.666C0 450.197 19.135 469.333 42.667 469.333H304.228C325.767 495.376 358.31 512 394.667 512C459.365 512 512 459.365 512 394.667C512 358.31 495.376 325.767 469.333 304.228ZM277.333 394.667C277.333 405.771 278.985 416.478 281.881 426.667H42.667V170.667H426.667V281.882C416.478 278.986 405.771 277.334 394.667 277.334C329.969 277.333 277.333 329.969 277.333 394.667ZM455.542 370.208L380.875 444.875C378.792 446.958 376.062 448 373.333 448C370.604 448 367.875 446.958 365.791 444.875L333.791 412.875C329.624 408.708 329.624 401.958 333.791 397.792C337.958 393.625 344.708 393.625 348.874 397.792L373.332 422.25L440.457 355.125C444.624 350.958 451.374 350.958 455.54 355.125C459.708 359.292 459.708 366.042 455.542 370.208Z" fill="#90DD53"/>
</svg>
