<svg viewBox="0 0 512 512" fill="none" xmlns="http://www.w3.org/2000/svg">
<path d="M469.333 304.232V85.333C469.333 61.802 450.187 42.666 426.666 42.666H373.333C367.437 42.666 362.666 47.437 362.666 53.333V106.666C362.666 118.426 353.103 127.999 341.333 127.999C329.563 128 320 118.427 320 106.667C320 97.75 325.729 89.719 334.25 86.688C338.5 85.167 341.333 81.146 341.333 76.636V10.667C341.333 4.771 336.563 0 330.667 0C324.771 0 320 4.771 320 10.667V42.667H160C154.104 42.667 149.333 47.438 149.333 53.334V106.667C149.333 118.427 139.77 128 128 128C116.23 128 106.667 118.427 106.667 106.667C106.667 97.75 112.396 89.719 120.917 86.688C125.167 85.167 128 81.146 128 76.636V10.667C128 4.771 123.229 0 117.333 0C111.437 0 106.666 4.771 106.666 10.667V42.667H42.666C19.146 42.667 0 61.802 0 85.333V426.666C0 450.197 19.146 469.333 42.667 469.333H304.23C325.772 495.376 358.316 512 394.667 512C459.354 512 512 459.365 512 394.667C512 358.313 495.374 325.77 469.333 304.232ZM277.333 394.667C277.333 405.771 278.987 416.478 281.882 426.667H42.667V170.667H426.667V281.883C416.478 278.986 405.771 277.334 394.667 277.334C329.979 277.333 277.333 329.969 277.333 394.667ZM434.208 434.208C432.125 436.291 429.395 437.333 426.666 437.333C423.937 437.333 421.208 436.291 419.124 434.208L387.124 402.208C385.124 400.208 383.999 397.5 383.999 394.666V330.666C383.999 324.77 388.77 319.999 394.666 319.999C400.562 319.999 405.333 324.77 405.333 330.666V390.249L434.208 419.124C438.375 423.292 438.375 430.042 434.208 434.208Z" />
</svg>
