<svg viewBox="0 0 512 512" fill="none" xmlns="http://www.w3.org/2000/svg">
<g clip-path="url(#clip0)">
<path d="M503.927 362.99L483.489 357.875L494.322 339.812C496.843 335.614 496.176 330.239 492.718 326.781L469.333 303.396V85.333C469.333 61.802 450.198 42.666 426.666 42.666H373.333C367.437 42.666 362.666 47.437 362.666 53.333V106.666C362.666 118.426 353.093 127.999 341.333 127.999C329.573 127.999 320 118.426 320 106.666C320 97.749 325.729 89.718 334.25 86.687C338.5 85.166 341.333 81.145 341.333 76.635V10.667C341.333 4.771 336.563 0 330.667 0C324.771 0 320 4.771 320 10.667V42.667H160C154.104 42.667 149.333 47.438 149.333 53.334V106.667C149.333 118.427 139.76 128 128 128C116.24 128 106.667 118.427 106.667 106.667C106.667 97.75 112.396 89.719 120.917 86.688C125.167 85.167 128 81.146 128 76.636V10.667C128 4.771 123.229 0 117.333 0C111.437 0 106.666 4.771 106.666 10.667V42.667H42.666C19.135 42.667 0 61.802 0 85.333V426.666C0 450.197 19.135 469.333 42.667 469.333H303.396L326.781 492.718C330.229 496.156 335.594 496.833 339.812 494.322L357.875 483.489L362.99 503.927C364.178 508.667 368.438 512 373.334 512H416C420.896 512 425.156 508.667 426.344 503.927L431.459 483.489L449.522 494.322C453.72 496.843 459.095 496.176 462.553 492.718L492.72 462.551C496.178 459.093 496.845 453.718 494.324 449.52L483.491 431.457L503.929 426.342C508.669 425.154 512.002 420.894 512.002 415.998V373.331C512 368.438 508.667 364.177 503.927 362.99ZM326.781 296.615L296.614 326.782C293.156 330.24 292.489 335.615 295.01 339.813L305.843 357.876L285.405 362.991C280.665 364.179 277.332 368.439 277.332 373.335V416C277.332 420.896 280.665 425.156 285.405 426.344L286.695 426.667H42.667V170.667H426.667V286.697L426.344 285.407C425.156 280.667 420.896 277.334 416 277.334H373.333C368.437 277.334 364.177 280.667 362.989 285.407L357.874 305.845L339.811 295.012C335.604 292.5 330.229 293.146 326.781 296.615ZM394.667 448C365.261 448 341.334 424.073 341.334 394.667C341.334 365.261 365.261 341.334 394.667 341.334C424.073 341.334 448 365.26 448 394.667C448 424.074 424.073 448 394.667 448Z" />
</g>
<defs>
<clipPath id="clip0">
<rect width="512" height="512" fill="white"/>
</clipPath>
</defs>
</svg>
