<svg  viewBox="0 0 40 40" fill="none" xmlns="http://www.w3.org/2000/svg">
<g clip-path="url(#clip0)">
<path d="M37.8672 6.41345H3.85498V30.4221H37.8672C38.6035 30.4221 39.2006 29.8249 39.2006 29.0881V7.74749C39.2006 7.01062 38.6035 6.41345 37.8672 6.41345ZM13.1915 27.7546H6.52248V23.7531H13.1915V27.7546ZM13.1915 20.4185H6.52248V16.417H13.1915V20.4185ZM13.1915 13.0825H6.52248V9.08152H13.1915V13.0825ZM36.5331 24.4201H20.5276V12.4155H36.5331V24.4201Z" fill="#CDCDD0"/>
<path d="M20.5276 24.4201H36.5332V12.4155H20.5276V24.4201ZM31.8652 14.4166V20.4186C31.8652 21.1549 32.4623 21.7521 33.1986 21.7521C33.9355 21.7521 34.5327 21.1549 34.5327 20.4186C34.5327 21.1549 33.9355 21.7521 33.1986 21.7521C32.4623 21.7521 31.8652 21.1549 31.8652 20.4186V14.4166ZM27.1966 18.4181V15.0836H29.8641V18.4181H27.1966ZM22.5281 16.4171C22.5281 15.6808 23.1252 15.083 23.8621 15.083C23.1252 15.0836 22.5281 15.6808 22.5281 16.4171V20.4186C22.5281 21.1549 23.1252 21.7521 23.8621 21.7521H25.1961V18.4175V21.7521H23.8621C23.1252 21.7521 22.5281 21.1549 22.5281 20.4186V16.4171Z" fill="#66E7EC"/>
<path d="M27.1967 15.0835H29.8642V18.418H27.1967V15.0835Z" fill="#66E7EC"/>
<path d="M1.1875 8.41455H3.855V13.7495H1.1875V8.41455Z" fill="#66E7EC"/>
<path d="M1.1875 15.75H3.855V21.0856H1.1875V15.75Z" fill="#66E7EC"/>
<path d="M6.52246 13.0825H13.1915V9.08154H6.52246V13.0825Z" fill="#66E7EC"/>
<path d="M6.52246 20.4185H13.1915V16.417H6.52246V20.4185Z" fill="#66E7EC"/>
<path d="M6.52246 27.7546H13.1915V23.7531H6.52246V27.7546Z" fill="#66E7EC"/>
<path d="M37.8672 5.74645H4.52201V2.41193C4.52201 2.04378 4.22314 1.74548 3.85499 1.74548H-0.146545V3.07895H3.18797V7.7475H1.18749C0.81877 7.7475 0.520472 8.0458 0.520472 8.41452V13.7495C0.520472 14.1177 0.81877 14.4165 1.18749 14.4165H3.18797V15.083H1.18749C0.81877 15.083 0.520472 15.3819 0.520472 15.75V21.0856C0.520472 21.4537 0.81877 21.752 1.18749 21.752H3.18797V38.4246H4.52201V31.0891H37.8672C38.9722 31.0891 39.8677 30.1931 39.8677 29.0881V7.7475C39.8677 6.64248 38.9722 5.74645 37.8672 5.74645ZM1.85394 13.0825V9.08154H3.18797V13.0825H1.85394ZM1.85394 20.4186V16.417H3.18797V20.4186H1.85394ZM38.5336 29.0881C38.5336 29.4568 38.2353 29.7551 37.8672 29.7551H4.52201V7.08048H37.8672C38.2353 7.08048 38.5336 7.37878 38.5336 7.7475V29.0881Z" fill="#231F20"/>
<path d="M36.5331 11.749H20.5276C20.1594 11.749 19.8605 12.0473 19.8605 12.4155V24.4201C19.8605 24.7882 20.1594 25.0871 20.5276 25.0871H36.5331C36.9013 25.0871 37.2001 24.7882 37.2001 24.4201V12.4155C37.2001 12.0473 36.9013 11.749 36.5331 11.749ZM35.8661 23.7531H21.1946V13.0825H35.8661V23.7531Z" fill="#231F20"/>
<path d="M23.8621 22.419H25.8626V18.418C25.8626 18.0493 25.5643 17.751 25.1961 17.751H23.8621V19.0851H24.5291V21.0855H23.8621C23.4939 21.0855 23.1951 20.7872 23.1951 20.4185V16.4176C23.1951 16.0488 23.4939 15.7505 23.8621 15.7505H25.8626V14.4165H23.8621C22.7571 14.4165 21.861 15.312 21.861 16.417V20.4185C21.861 21.5235 22.7571 22.419 23.8621 22.419Z" fill="#231F20"/>
<path d="M33.1987 22.419C34.3037 22.419 35.1991 21.5235 35.1991 20.4185V14.4165H33.8657V20.4185C33.8657 20.7867 33.5668 21.0855 33.1987 21.0855C32.8305 21.0855 32.5316 20.7867 32.5316 20.4185V14.4165H31.1982V20.4185C31.1982 21.5235 32.0936 22.419 33.1987 22.419Z" fill="#231F20"/>
<path d="M27.8636 19.0845H29.8641C30.2323 19.0845 30.5311 18.7862 30.5311 18.418V15.0835C30.5311 14.7148 30.2323 14.4165 29.8641 14.4165H27.1966C26.8279 14.4165 26.5296 14.7148 26.5296 15.0835V22.419H27.8636V19.0845ZM27.8636 15.75H29.1971V17.751H27.8636V15.75Z" fill="#231F20"/>
<path d="M13.1915 8.41455H6.52249C6.15434 8.41455 5.85547 8.71285 5.85547 9.081V13.0825C5.85547 13.4507 6.15434 13.7495 6.52249 13.7495H13.1915C13.5597 13.7495 13.8585 13.4507 13.8585 13.0825V9.081C13.8585 8.71285 13.5597 8.41455 13.1915 8.41455ZM12.5245 12.4155H7.1895V9.74801H12.5245V12.4155Z" fill="#231F20"/>
<path d="M13.1915 15.75H6.52249C6.15434 15.75 5.85547 16.0489 5.85547 16.417V20.4186C5.85547 20.7867 6.15434 21.0856 6.52249 21.0856H13.1915C13.5597 21.0856 13.8585 20.7867 13.8585 20.4186V16.417C13.8585 16.0489 13.5597 15.75 13.1915 15.75ZM12.5245 19.7515H7.1895V17.084H12.5245V19.7515Z" fill="#231F20"/>
<path d="M13.1915 23.0861H6.52249C6.15434 23.0861 5.85547 23.3849 5.85547 23.7531V27.7546C5.85547 28.1228 6.15434 28.4211 6.52249 28.4211H13.1915C13.5597 28.4211 13.8585 28.1228 13.8585 27.7546V23.7531C13.8585 23.3849 13.5597 23.0861 13.1915 23.0861ZM12.5245 27.0876H7.1895V24.4201H12.5245V27.0876Z" fill="#231F20"/>
<path d="M14.5256 9.08093H15.859V11.749H14.5256V9.08093Z" fill="#231F20"/>
<path d="M14.5256 13.0825H15.859V15.7506H14.5256V13.0825Z" fill="#231F20"/>
<path d="M14.5256 17.084H15.859V19.7515H14.5256V17.084Z" fill="#231F20"/>
<path d="M14.5256 21.0856H15.859V23.7531H14.5256V21.0856Z" fill="#231F20"/>
<path d="M14.5256 25.0872H15.859V27.7546H14.5256V25.0872Z" fill="#231F20"/>
<path d="M8.52295 10.415H11.191V11.7491H8.52295V10.415Z" fill="#231F20"/>
<path d="M8.52295 17.7511H11.191V19.0846H8.52295V17.7511Z" fill="#231F20"/>
<path d="M8.52295 25.0872H11.191V26.4206H8.52295V25.0872Z" fill="#231F20"/>
<path d="M16.5261 8.41455H17.8601V9.74802H16.5261V8.41455Z" fill="#231F20"/>
<path d="M16.5261 11.082H17.8601V12.4155H16.5261V11.082Z" fill="#231F20"/>
<path d="M16.5261 13.7495H17.8601V15.0835H16.5261V13.7495Z" fill="#231F20"/>
<path d="M16.5261 16.417H17.8601V17.751H16.5261V16.417Z" fill="#231F20"/>
<path d="M16.5261 19.0845H17.8601V20.4185H16.5261V19.0845Z" fill="#231F20"/>
<path d="M16.5261 21.7526H17.8601V23.086H16.5261V21.7526Z" fill="#231F20"/>
<path d="M16.5261 24.42H17.8601V25.7535H16.5261V24.42Z" fill="#231F20"/>
<path d="M16.5261 27.0876H17.8601V28.4217H16.5261V27.0876Z" fill="#231F20"/>
</g>
<defs>
<clipPath id="clip0">
<rect width="40" height="40" fill="white"/>
</clipPath>
</defs>
</svg>
